<svg width="43" height="45" viewBox="0 0 43 45" fill="none" xmlns="http://www.w3.org/2000/svg">
  <path d="M18.6953 2.68842C18.6953 1.58385 19.5907 0.688416 20.6953 0.688416H22.304C23.4086 0.688416 24.304 1.58385 24.304 2.68842V42.3116C24.304 43.4162 23.4086 44.3116 22.304 44.3116H20.6953C19.5907 44.3116 18.6953 43.4162 18.6953 42.3116V2.68842Z" fill="currentColor"/>
  <path d="M9.34766 8.92029C9.34766 7.81572 10.2431 6.92029 11.3477 6.92029H12.9564C14.0609 6.92029 14.9564 7.81572 14.9564 8.92029V36.0797C14.9564 37.1843 14.0609 38.0797 12.9564 38.0797H11.3477C10.2431 38.0797 9.34766 37.1843 9.34766 36.0797V8.92029Z" fill="currentColor"/>
  <path d="M2 14.3986C0.895431 14.3986 0 15.294 0 16.3986V28.6015C0 29.706 0.895432 30.6015 2 30.6015H3.6087C4.71326 30.6015 5.6087 29.706 5.6087 28.6015V16.3986C5.6087 15.294 4.71326 14.3986 3.60869 14.3986H2Z" fill="currentColor"/>
  <path d="M37.3906 16.3986C37.3906 15.294 38.2861 14.3986 39.3906 14.3986H40.9993C42.1039 14.3986 42.9993 15.294 42.9993 16.3986V28.6015C42.9993 29.706 42.1039 30.6015 40.9993 30.6015H39.3906C38.2861 30.6015 37.3906 29.706 37.3906 28.6015V16.3986Z" fill="currentColor"/>
  <path d="M30.043 6.92029C28.9384 6.92029 28.043 7.81572 28.043 8.92029V36.0797C28.043 37.1843 28.9384 38.0797 30.043 38.0797H31.6517C32.7562 38.0797 33.6517 37.1843 33.6517 36.0797V8.92029C33.6517 7.81572 32.7562 6.92029 31.6517 6.92029H30.043Z" fill="currentColor"/>
</svg>